<svg width="169" height="167" viewBox="0 0 169 167" fill="none" xmlns="http://www.w3.org/2000/svg">
<path d="M57.2662 41.7421C53.5557 40.7741 49.58 39.8061 45.6928 38.7501C45.3394 38.6621 44.8977 38.5741 44.5443 38.4861C42.6891 37.8701 41.2755 37.6941 39.5085 39.3661C36.9465 41.8301 33.8544 43.766 31.0273 46.054C29.7905 47.11 28.907 46.846 27.8469 45.79C25.1965 43.238 25.3732 40.1581 28.1119 37.6941C31.1157 35.0542 34.1194 32.5022 36.7698 29.5102C38.6251 27.4863 40.6571 27.5743 42.7774 27.8383C49.4917 28.8062 56.206 29.8622 62.9203 31.0942C66.6309 31.7982 70.3414 32.8542 73.9636 33.8222C74.4054 33.9102 74.7588 34.9662 74.7588 35.5821C74.8471 39.6301 74.7588 43.678 74.7588 47.814C75.0238 47.814 75.2005 47.902 75.4656 47.902C77.3209 43.854 79.2645 39.8061 81.1198 35.8461C84.9187 36.0221 87.3923 38.0461 89.6893 40.5981C91.7213 42.8861 94.195 44.822 96.1387 47.198C97.1105 48.342 97.5522 48.166 98.4357 47.374C100.998 45.086 103.648 42.7981 106.299 40.5981C107.447 39.6301 108.772 38.3981 110.362 39.8061C111.864 41.1261 112.836 42.7101 112.041 44.822C111.776 45.526 111.423 46.406 110.804 46.934C106.829 50.806 102.853 54.7659 98.7006 58.4619C97.1104 59.8698 95.1668 59.2538 93.5766 57.9339C89.6894 54.8539 85.8021 51.7739 81.6498 48.43C80.5897 53.1819 79.5295 57.8459 78.4694 62.4218C78.0276 64.3578 77.4975 66.3818 77.0558 68.3177C76.7024 69.5497 77.0558 70.4297 78.381 71.0457C84.5652 73.9496 90.6611 77.1176 96.8454 79.9336C100.291 81.5176 101.704 83.9815 102.058 87.6775C102.676 93.8374 103.913 99.9973 104.885 106.157C105.238 108.093 104.797 109.501 102.5 109.941C99.1424 110.645 95.6085 111.437 93.3115 107.917C92.2514 106.333 91.898 104.397 91.4563 102.461C90.8378 99.3813 90.3961 96.2134 89.866 93.0454C89.5126 91.1974 88.3641 90.4054 86.5972 89.7015C79.6178 86.8855 72.7269 83.7175 65.6592 80.5496C63.8039 85.1255 61.4185 89.5254 60.0933 94.1894C58.238 100.701 53.9974 105.101 48.8733 109.061C45.3395 111.789 41.894 114.693 38.3601 117.509C37.83 117.949 36.7699 118.301 36.1514 118.037C33.501 117.069 31.1157 112.405 31.2924 109.501C31.4691 106.509 33.7661 105.101 35.6214 103.429C38.7135 100.525 42.2473 98.0613 45.2511 94.9814C46.6646 93.4854 47.1063 91.0214 47.9014 88.9975C49.4917 84.9495 51.1703 80.9896 52.4072 76.9416C53.2907 73.7737 53.5556 70.4297 53.9974 67.0857C54.9692 59.9578 55.941 52.7419 56.9128 45.614C57.0895 44.646 57.0896 43.414 57.2662 41.7421Z" fill="#EA1C0D"/>
<path d="M37.3172 60.1333C36.8755 61.5413 36.9639 62.6853 36.3454 63.3013C32.8999 66.9092 29.4544 70.5172 25.8322 73.8611C23.7119 75.7091 21.7684 75.3571 19.7364 73.5091C14.3473 68.4052 8.8698 63.3013 3.39232 58.2853C-0.406568 54.7654 -0.494914 52.5654 2.95059 48.8695C5.42429 46.1415 7.98629 43.5015 10.6367 40.8616C13.6405 37.9576 15.5841 37.8696 18.6762 40.6856C22.3867 44.0295 25.9206 47.6375 29.5428 51.0694C31.4864 53.0054 33.6067 54.8534 35.462 56.8774C36.2571 57.8453 36.7871 59.1653 37.3172 60.1333Z" fill="#EA1C0D"/>
<path d="M89.9745 14.0217C89.9745 22.2056 84.2319 27.7496 77.4293 27.5736C68.683 27.3976 64.2656 21.2377 64.2656 13.9337C64.2656 6.36584 70.0082 0.909912 77.1643 0.909912C84.3203 0.997911 89.8862 6.54184 89.9745 14.0217Z" fill="#EA1C0D"/>
<path d="M168.268 108.182L165.706 84.9505V84.8626C165.706 84.7746 165.706 84.6866 165.618 84.5106C165.618 84.4226 165.618 84.3346 165.529 84.2466C165.529 84.1586 165.441 84.0706 165.441 83.8946C165.441 83.8066 165.352 83.7186 165.352 83.6306C165.352 83.5426 165.264 83.3666 165.264 83.2786C165.264 83.1906 165.176 83.1026 165.176 83.1026C165.087 83.0146 165.087 82.8386 164.999 82.7506C164.999 82.6626 164.911 82.6626 164.911 82.5746C164.822 82.4866 164.734 82.3106 164.734 82.2226C164.734 82.1346 164.646 82.1346 164.646 82.0466C164.557 81.9586 164.469 81.8706 164.381 81.6946C164.292 81.6066 164.292 81.6066 164.204 81.5186C164.116 81.4306 164.027 81.3426 163.939 81.2546C163.851 81.1666 163.851 81.1666 163.762 81.0786C163.674 80.9906 163.586 80.9026 163.497 80.9026C163.409 80.8146 163.409 80.8146 163.321 80.7266C163.321 80.7266 163.32 80.7266 163.232 80.7266C163.232 80.7266 163.232 80.7266 163.144 80.6386C163.055 80.5506 163.056 80.5506 162.967 80.5506C162.879 80.4626 162.79 80.4626 162.702 80.3746C162.614 80.2866 162.525 80.2866 162.437 80.1986C162.349 80.1986 162.26 80.1106 162.172 80.1106C162.084 80.0226 161.907 80.0226 161.819 79.9346C161.73 79.9346 161.642 79.8466 161.642 79.8466C161.554 79.7586 161.377 79.7586 161.289 79.7586C161.2 79.7586 161.112 79.6706 161.112 79.6706C161.024 79.6706 160.847 79.5826 160.759 79.5826C160.67 79.5826 160.582 79.5826 160.493 79.4946C160.405 79.4946 160.228 79.4946 160.14 79.4066C160.052 79.4066 159.963 79.4066 159.875 79.4066C159.787 79.4066 159.698 79.4066 159.522 79.4066C159.433 79.4066 159.345 79.4066 159.257 79.4066C159.168 79.4066 159.08 79.4066 158.992 79.4066C158.903 79.4066 158.815 79.4066 158.727 79.4066L134.696 82.3106C131.339 82.7506 128.866 85.7425 129.307 89.1745C129.749 92.5185 132.841 94.9824 136.198 94.5424L145.74 93.3984L122.151 124.462L100.683 118.302C98.4744 117.686 96.0007 118.302 94.4105 120.062L76.1227 139.686L36.4552 125.342C34.1582 124.55 31.5962 125.078 29.9177 126.838L1.73517 156.318C-0.650178 158.782 -0.561875 162.654 1.91182 165.03C3.14867 166.174 4.6506 166.702 6.15249 166.702C7.74272 166.702 9.42128 166.086 10.6581 164.766L36.1019 138.278L75.8577 152.622C78.1548 153.502 80.8051 152.798 82.4837 151.038L101.036 131.238L122.946 137.486C125.42 138.19 128.07 137.31 129.572 135.286L155.104 101.67L155.988 109.502C156.341 112.67 158.992 114.958 162.084 114.958C162.349 114.958 162.525 114.958 162.79 114.958C166.148 114.606 168.621 111.614 168.268 108.182Z" fill="#EA1C0D"/>
</svg>
