<svg width="139" height="145" viewBox="0 0 139 145" fill="none" xmlns="http://www.w3.org/2000/svg">
<path d="M106.986 145C104.635 145 102.284 145 99.9324 145C99.3054 144.765 98.7568 144.53 98.1297 144.373C90.6838 143.276 84.2567 140.062 79.0054 134.732C77.4378 133.165 75.8703 132.538 73.6757 132.538C55.2568 132.616 36.8378 132.538 18.3405 132.616C12.1486 132.616 6.89729 130.578 3.37026 125.484C1.88107 123.289 1.0973 120.546 0 117.959C0 83.3946 0 48.7514 0 14.1865C2.19459 6.58378 7.05403 1.8027 14.8135 0C41.227 0 67.6405 0 94.054 0C105.811 4.78108 108.241 8.54324 108.241 21.6324C108.241 38.1703 108.241 54.7081 108.241 71.2459C108.241 72.4216 108.241 73.5189 108.241 74.6162C109.416 74.9297 110.278 75.1649 111.141 75.4C126.424 78.7703 137.868 91.9378 138.573 107.065C139.435 123.995 129.951 138.181 114.354 143.197C112.003 143.981 109.495 144.451 106.986 145ZM100.011 74.5378C100.011 73.4405 100.011 72.5784 100.011 71.7162C100.011 54.0027 100.011 36.2892 100.011 18.5757C100.011 11.6 96.7189 8.38648 89.7432 8.38648C66.1513 8.38648 42.4811 8.38648 18.8892 8.38648C11.6784 8.38648 8.3865 11.6784 8.3865 18.7324C8.3865 50.3973 8.3865 82.0622 8.3865 113.727C8.3865 121.016 11.6784 124.308 19.0459 124.308C35.3486 124.308 51.6513 124.308 68.0324 124.308C69.0513 124.308 70.0703 124.23 71.1676 124.151C61.4486 97.6595 79.6324 76.9676 100.011 74.5378ZM77.2811 109.886C77.4378 124.543 89.5081 136.692 103.695 136.378C118.822 135.986 130.265 124.23 130.108 109.259C129.951 94.6027 118.116 83.1595 103.381 83.3162C88.6459 83.473 77.0459 95.2297 77.2811 109.886Z" fill="#EA1C0D"/>
<path d="M34.3299 45.0672C38.4055 45.0672 42.4812 45.0672 46.5569 45.0672C49.2217 45.0672 50.8677 46.1644 51.1028 48.9077C51.338 51.4942 49.692 53.2969 46.7136 53.2969C38.5623 53.3753 30.4109 53.3753 22.2596 53.2969C19.3596 53.2969 17.5569 51.4158 17.6353 48.9861C17.7136 46.5563 19.5164 45.0671 22.4947 44.9888C26.4137 45.0671 30.4109 45.0672 34.3299 45.0672Z" fill="#EA1C0D"/>
<path d="M74.4594 45.0671C78.4567 45.0671 82.3756 45.0671 86.3729 45.0671C89.1162 45.0671 90.7621 46.3996 90.8405 49.0644C90.9188 51.8077 89.1162 53.2969 86.608 53.3753C78.2216 53.532 69.8351 53.532 61.527 53.3753C59.0189 53.2969 57.2945 51.8077 57.4513 48.9861C57.608 46.2428 59.3324 45.0671 61.9972 45.1455C66.0729 45.1455 70.3053 45.0671 74.4594 45.0671Z" fill="#EA1C0D"/>
<path d="M34.4886 70.3056C30.4913 70.3056 26.5723 70.2272 22.575 70.3056C19.7534 70.384 17.9507 69.13 17.6372 66.3083C17.3237 63.8002 19.3615 61.9975 22.4967 61.9191C30.4129 61.8408 38.4074 61.8408 46.3237 61.9191C49.5372 61.9191 51.3399 63.5651 51.1831 66.2299C51.0264 69.2083 49.1453 70.2272 46.4021 70.2272C42.4048 70.3056 38.4075 70.3056 34.4886 70.3056Z" fill="#EA1C0D"/>
<path d="M34.33 104.557C30.2543 104.557 26.1786 104.557 22.103 104.557C19.3597 104.557 17.7138 103.146 17.6354 100.56C17.557 97.8947 19.2813 96.4055 21.9462 96.4055C30.3327 96.3271 38.6408 96.3271 47.0273 96.4055C49.6138 96.4055 51.2597 97.973 51.103 100.716C50.9462 103.303 49.3786 104.557 46.8705 104.557C42.7164 104.557 38.5624 104.557 34.33 104.557Z" fill="#EA1C0D"/>
<path d="M34.4857 36.2112C30.41 36.2112 26.3343 36.2895 22.2586 36.2112C19.3586 36.1328 17.3992 34.4868 17.6343 32.0571C17.8695 29.3922 19.437 28.0598 22.1019 28.0598C30.3316 28.0598 38.6397 28.0598 46.8695 28.0598C49.5343 28.0598 51.1803 29.4706 51.1019 32.2139C51.0235 34.9571 49.3776 36.2112 46.7127 36.2112C42.637 36.2112 38.5614 36.2112 34.4857 36.2112Z" fill="#EA1C0D"/>
<path d="M74.2252 36.2106C70.1496 36.2106 66.0739 36.289 61.9982 36.2106C58.8631 36.1322 57.2955 34.7214 57.3739 32.1349C57.4523 29.1565 59.3334 28.0592 62.0766 28.0592C70.1496 28.0592 78.1442 27.9809 86.2171 28.0592C89.2739 28.0592 90.9198 29.6268 90.9198 32.1349C90.9198 34.643 89.2739 36.1322 86.1387 36.1322C82.1414 36.289 78.2225 36.2106 74.2252 36.2106Z" fill="#EA1C0D"/>
<path d="M34.6429 79.0839C38.6402 79.0839 42.5591 79.0055 46.5564 79.0839C49.6131 79.1623 51.2591 80.6515 51.1807 83.238C51.0239 85.9812 49.378 87.2353 46.7131 87.2353C38.4834 87.2353 30.2537 87.2353 21.9456 87.2353C19.2023 87.2353 17.6348 85.6677 17.6348 83.0812C17.6348 80.4947 19.3591 79.0839 22.1023 79.0839C26.3348 79.0839 30.4888 79.0839 34.6429 79.0839Z" fill="#EA1C0D"/>
<path d="M67.6402 70.3053C65.6023 70.3053 63.5645 70.3836 61.5266 70.3053C59.0185 70.2269 57.451 68.9728 57.3726 66.3863C57.2158 63.7998 58.705 62.2323 61.1348 62.0755C65.3672 61.8404 69.678 61.8404 73.9104 62.0755C76.3402 62.2323 77.8293 63.9566 77.5942 66.4647C77.4375 68.7377 76.0266 70.1485 73.6753 70.3053C71.6375 70.3836 69.678 70.3053 67.6402 70.3053Z" fill="#EA1C0D"/>
<path d="M101.108 111.924C104.713 107.457 108.084 103.146 111.532 98.9136C113.805 96.1704 117.411 96.0136 118.822 98.7569C119.527 100.168 119.684 102.833 118.822 104.008C114.589 109.808 109.965 115.373 105.419 120.938C103.695 123.054 101.422 123.289 99.0702 121.643C95.8567 119.37 92.5648 117.097 89.4296 114.668C87.0783 112.865 86.6864 110.2 88.3324 108.162C90.1351 105.968 92.3297 105.811 94.6026 107.378C96.7972 108.711 98.7567 110.2 101.108 111.924Z" fill="#EA1C0D"/>
</svg>
