<svg width="174" height="155" viewBox="0 0 174 155" fill="none" xmlns="http://www.w3.org/2000/svg">
<path d="M174 91.6288C173.348 92.6072 172.777 93.6672 171.962 94.4826C155.654 110.953 139.265 127.424 122.876 143.976C121.897 144.954 120.837 145.525 119.533 145.851C107.384 148.46 95.1531 151.151 83.004 153.842C81.6179 154.168 80.4764 154.005 79.1718 153.271C67.1042 146.504 55.0366 139.817 42.9691 133.131C42.4798 132.805 42.0722 132.805 41.5014 133.05C29.4338 137.29 17.3663 141.448 5.29871 145.77C2.85258 146.667 0.487997 145.199 0.0803087 143.079C-0.164304 141.937 0.161846 140.877 0.895685 139.899C1.1403 139.654 1.38491 139.41 1.62952 139.165C18.3447 122.45 35.1415 105.653 51.8567 88.938C52.6721 88.1226 53.569 87.5519 54.7105 87.2257C57.1566 86.4103 59.5212 85.5134 62.0489 84.6981C61.7227 84.1273 61.4781 83.6381 61.2335 83.1488C56.6674 74.9951 52.6721 66.5152 50.0628 57.4645C48.4321 51.7569 47.4537 45.9677 47.7798 39.9339C48.3506 30.7202 51.5305 22.5664 57.4012 15.4726C63.6796 7.97118 71.6703 3.242 81.2917 1.2851C83.0856 0.877415 84.9609 0.714339 86.8363 0.469727C88.6301 0.469727 90.424 0.469727 92.1363 0.469727C92.3809 0.551264 92.6255 0.632802 92.7885 0.632802C101.35 1.36664 108.933 4.302 115.538 9.76501C125.322 17.7557 130.54 28.111 131.193 40.7493C131.437 46.5385 130.377 52.2461 128.747 57.7907C125.974 67.249 121.653 75.9735 116.761 84.4535C116.516 84.7796 116.353 85.1873 116.108 85.5134C116.271 85.595 116.353 85.6765 116.434 85.758C121.979 88.8565 127.524 91.9549 133.068 95.0533C133.313 95.2164 133.72 95.2164 134.047 95.1349C145.136 92.7703 156.143 90.3242 167.232 87.9596C168.211 87.715 169.271 87.4703 170.249 87.4703C172.206 87.4703 173.266 88.6934 173.918 90.4057C174 90.5688 174 91.1395 174 91.6288ZM89.364 109.485C89.6086 109.241 89.7717 109.078 89.9347 108.915C97.7623 99.701 104.856 89.9165 110.89 79.4797C115.374 71.652 119.288 63.5798 121.816 54.9368C123.528 48.9031 124.425 42.7877 123.365 36.4278C120.022 16.6957 100.453 3.89431 81.1287 8.8681C64.5765 13.1081 52.7536 29.2525 55.7705 48.0877C56.8305 54.7738 58.9505 61.1337 61.6412 67.249C67.3488 80.132 75.0134 91.8734 83.8194 102.799C85.5317 105.082 87.4886 107.202 89.364 109.485ZM81.1287 145.444C96.3762 130.278 111.542 115.112 126.79 99.8641C121.816 97.0918 117.005 94.401 112.113 91.6288C111.787 92.0365 111.542 92.4441 111.298 92.7703C105.671 101.332 99.3931 109.485 92.5439 117.15C90.6686 119.27 88.2225 119.352 86.4286 117.232C82.4333 112.665 78.601 108.018 74.6872 103.37C74.4426 103.126 74.2795 102.799 74.0349 102.555C65.7181 110.953 57.4012 119.188 49.0844 127.587C59.7658 133.539 70.3657 139.491 81.1287 145.444ZM93.6039 143.731C101.676 141.937 109.422 140.307 117.25 138.513C117.658 138.431 117.984 138.187 118.228 137.861C131.356 124.651 144.483 111.442 157.611 98.2333C157.856 97.9887 158.182 97.8256 158.508 97.6625C158.426 97.581 158.345 97.4995 158.263 97.4179C158.1 97.4179 158.019 97.4179 157.856 97.4995C150.517 99.1302 143.179 100.679 135.84 102.31C135.025 102.473 134.454 102.799 133.883 103.37C120.756 116.498 107.547 129.707 94.4193 142.834C94.2562 142.997 94.0116 143.242 93.6039 143.731ZM69.5503 96.3579C68.4903 94.7272 67.4304 93.2595 66.4519 91.6288C66.1258 91.1395 65.8811 91.058 65.3104 91.2211C62.8643 92.118 60.4181 92.9334 57.972 93.8303C57.4828 93.9934 56.9935 94.3195 56.5859 94.7272C44.0291 107.202 31.5538 119.759 18.997 132.234C18.7524 132.479 18.5078 132.561 18.2632 132.724C18.3447 132.805 18.4263 132.887 18.4263 132.968C18.6709 132.887 18.9155 132.805 19.1601 132.724C26.0908 130.278 33.0215 127.913 39.8706 125.467C40.4414 125.304 40.9306 124.896 41.3383 124.57C50.5521 115.438 59.6843 106.224 68.8165 97.0918C69.1426 96.8472 69.3057 96.6025 69.5503 96.3579Z" fill="#EA1C0D"/>
<path d="M66.2031 41.8088C66.2847 29.0074 76.7215 18.5705 89.5229 18.6521C102.324 18.7336 112.761 29.1704 112.68 41.9718C112.598 54.8548 102.161 65.2101 89.1967 65.1285C76.5584 65.1285 66.2031 54.6102 66.2031 41.8088ZM89.4413 26.1535C80.7984 26.1535 73.7861 33.2473 73.7046 41.8903C73.7046 50.5333 80.7984 57.7086 89.4413 57.6271C98.1659 57.6271 105.178 50.5333 105.178 41.8903C105.178 33.2473 98.0843 26.1535 89.4413 26.1535Z" fill="#EA1C0D"/>
</svg>
