<svg width="145" height="145" viewBox="0 0 145 145" fill="none" xmlns="http://www.w3.org/2000/svg">
<path d="M145 69.0304C145 69.3471 145 69.6637 145 69.9804C144.522 72.4344 142.69 73.6219 140.779 74.9677C134.725 79.2425 128.672 83.5965 122.619 87.9505C122.061 88.3463 121.902 88.7421 121.902 89.3754C121.902 101.092 121.902 112.887 121.902 124.603C121.902 127.928 120.787 130.619 118.557 132.994C116.088 135.607 112.981 137.428 109.716 138.852C103.185 141.702 96.1755 143.206 89.0868 144.077C79.9273 145.265 70.688 145.265 61.5284 144.315C54.2008 143.523 47.0324 142.177 40.1827 139.407C36.6781 137.982 33.3329 136.24 30.5452 133.549C27.9168 131.015 26.4831 128.007 26.6424 124.366C26.7221 122.307 26.6424 120.249 26.6424 118.191C26.6424 117.478 26.4035 116.924 25.9256 116.449C17.8811 108.454 9.83658 100.458 1.79209 92.5419C-0.597363 90.167 -0.597363 86.9213 1.79209 84.5464C29.4301 57.1559 57.0681 29.7654 84.7062 2.3749C85.8212 1.26661 86.9363 0.23749 88.5293 0C88.7682 0 89.0868 0 89.3258 0C91.5559 0.23749 92.9896 1.66243 94.4232 3.16653C100.954 9.73709 107.486 16.2285 114.096 22.799C122.38 31.032 130.584 39.265 138.867 47.4188C141.097 49.6354 141.097 52.327 138.947 54.6227C138.31 55.3352 137.593 56.0476 136.956 56.8393C138.787 59.3725 140.54 61.8266 142.292 64.2806C143.327 65.7056 144.522 66.9722 144.841 68.8721C144.841 68.8721 144.92 68.9513 145 69.0304ZM128.115 51.2187C115.052 38.1567 102.07 25.2531 89.3258 12.587C63.679 37.9192 38.1118 63.2515 12.5446 88.5046C17.2439 93.1752 21.9432 97.8459 26.6424 102.517C26.6424 102.279 26.6424 102.042 26.6424 101.804C26.6424 99.0333 26.6424 96.1834 26.6424 93.4127C26.6424 92.0669 26.5627 90.8003 26.722 89.4546C27.0406 86.6047 28.554 84.3089 30.5452 82.3299C33.6515 79.2425 37.4746 77.3426 41.5367 75.7593C49.4219 72.6719 57.7053 71.4053 66.0684 70.9303C72.042 70.5345 78.0157 70.6137 83.9097 71.0887C90.5205 71.6428 97.0516 72.5928 103.344 74.651C103.981 74.8885 104.379 74.7302 104.857 74.2552C111.149 67.9221 117.521 61.6682 123.814 55.4143C125.327 53.9102 126.761 52.5644 128.115 51.2187ZM69.8119 119.457C72.3606 119.457 74.8297 119.616 77.3785 119.457C81.6795 119.22 86.0602 118.903 90.3612 118.349C97.2109 117.478 103.822 115.816 109.795 112.254C111.07 111.462 112.105 110.354 113.141 109.325C113.937 108.454 113.937 107.345 113.22 106.475C112.503 105.604 111.627 104.812 110.751 104.1C110.592 103.941 110.194 104.021 109.955 104.1C108.999 104.496 108.043 104.971 107.087 105.287C103.583 106.633 99.919 107.425 96.2552 108.216C92.0338 109.166 87.6531 109.72 83.3521 110.037C74.4315 110.749 65.5108 110.354 56.5902 108.929C50.3776 107.9 44.2447 106.791 38.5897 104.021C38.4304 103.941 38.0321 103.941 37.8728 104.1C37.0763 104.733 36.2002 105.366 35.4834 106.158C34.5276 107.266 34.4479 108.454 35.4834 109.562C36.3595 110.591 37.395 111.462 38.5897 112.174C42.0146 114.312 45.758 115.658 49.5812 116.687C56.2716 118.349 62.9621 119.299 69.8119 119.457ZM72.5996 136.873C80.883 136.873 88.2107 136.398 95.4587 134.815C100.317 133.786 105.096 132.44 109.397 129.828C110.672 129.036 111.866 128.086 112.902 127.057C114.096 125.87 114.017 124.761 112.981 123.495C112.424 122.782 111.707 122.149 110.99 121.595C110.751 121.437 110.194 121.357 109.955 121.516C104.379 123.97 98.6446 125.474 92.671 126.345C83.83 127.611 74.8297 128.086 65.9091 127.295C61.2098 126.899 56.5106 126.345 51.891 125.474C47.4307 124.682 43.05 123.416 38.9083 121.516C38.6694 121.357 38.1915 121.357 37.9525 121.516C37.0764 122.149 36.2799 122.861 35.5631 123.653C34.6073 124.761 34.6073 125.791 35.5631 126.899C36.2002 127.69 37.0763 128.482 37.8728 129.036C41.2181 131.411 44.9616 132.678 48.8644 133.786C56.9088 136.082 65.1126 136.715 72.5996 136.873ZM113.459 78.9258C113.937 79.2425 114.256 79.48 114.574 79.7175C115.371 80.2716 116.008 80.2716 116.884 79.6383C120.628 76.8676 124.451 74.2552 128.194 71.5637C129.708 70.5345 131.221 69.4262 132.814 68.2388C131.46 67.0513 130.185 65.8639 128.752 64.5973C123.814 69.2679 118.716 74.0177 113.459 78.9258Z" fill="#EA1C0D"/>
</svg>
