<svg width="157" height="159" viewBox="0 0 157 159" fill="none" xmlns="http://www.w3.org/2000/svg">
<path d="M117.8 69.5725C117.8 63.0824 117.8 56.6776 117.8 50.1874C81.8483 50.1874 45.9815 50.1874 9.85861 50.1874C9.85861 50.6144 9.85861 51.1268 9.85861 51.5538C9.85861 73.2446 9.85861 94.8501 9.85861 116.541C9.85861 118.59 9.944 118.676 11.9935 118.676C30.2685 118.676 48.458 118.676 66.733 118.676C67.3308 118.676 67.9286 118.676 68.6117 118.676C68.6117 121.921 68.6117 125.081 68.6117 128.496C68.0139 128.496 67.5016 128.496 66.9038 128.496C48.2872 128.496 29.6707 128.496 11.1396 128.496C4.90558 128.496 0.123351 123.97 0.0379542 117.651C-0.0474428 107.916 0.0379542 98.0951 0.0379542 88.3599C0.0379542 77.5999 0.0379542 66.9252 0.0379542 56.1652C0.0379542 47.9671 -0.0474428 39.8544 0.0379542 31.6563C0.123351 24.8245 4.64939 20.4693 11.4812 20.4693C12.5059 20.4693 13.5307 20.4693 14.7262 20.4693C14.7262 22.2626 14.7262 23.8852 14.7262 25.5931C14.8116 30.4607 18.4837 34.4744 23.3513 35.1576C27.792 35.7553 32.4888 32.6811 33.7698 28.2404C34.1114 27.0449 34.1967 25.8493 34.2821 24.6537C34.3675 23.3728 34.2821 22.0064 34.2821 20.6401C53.9235 20.6401 73.394 20.6401 93.1207 20.6401C93.1207 22.0918 93.1207 23.629 93.1207 25.0807C93.2061 29.7776 96.0242 33.6204 100.123 34.7306C106.528 36.5239 112.677 31.9979 112.762 25.3369C112.762 23.7998 112.762 22.2626 112.762 20.7255C119.594 19.6153 124.974 21.921 126.938 28.155C127.194 29.0944 127.45 30.0337 127.45 30.9731C127.45 43.6119 127.45 56.2506 127.45 68.804C127.45 68.9748 127.45 69.0602 127.365 69.3164C124.291 69.5725 121.131 69.5725 117.8 69.5725Z" fill="#EA1C0D"/>
<path d="M78.5176 118.505C78.7738 96.9845 96.1094 79.1366 118.569 79.5635C139.576 79.9905 156.997 96.8137 156.997 118.761C156.997 140.879 139.491 157.958 117.886 158.043C96.024 158.043 78.5176 140.366 78.5176 118.505ZM147.177 118.675C147.091 102.45 133.769 89.2134 117.459 89.2988C101.404 89.3842 88.082 102.792 88.3382 119.017C88.5944 135.413 101.66 148.137 117.8 148.137C134.026 148.137 147.262 134.815 147.177 118.675Z" fill="#EA1C0D"/>
<path d="M19.7617 59.9221C26.2519 59.9221 32.7421 59.9221 39.2322 59.9221C39.2322 66.4123 39.2322 72.8171 39.2322 79.3926C32.8275 79.3926 26.3373 79.3926 19.7617 79.3926C19.7617 72.9879 19.7617 66.4977 19.7617 59.9221Z" fill="#EA1C0D"/>
<path d="M49.1367 79.3926C49.1367 72.9025 49.1367 66.4123 49.1367 59.9221C55.6269 59.9221 62.0317 59.9221 68.6072 59.9221C68.6072 66.3269 68.6072 72.8171 68.6072 79.3926C62.1171 79.3926 55.7123 79.3926 49.1367 79.3926Z" fill="#EA1C0D"/>
<path d="M78.5176 79.3932C78.5176 72.903 78.5176 66.4982 78.5176 60.0081C85.0077 60.0081 91.4125 60.0081 97.9881 60.0081C97.9881 66.4128 97.9881 72.8176 97.9881 79.3932C91.5833 79.3932 85.0931 79.3932 78.5176 79.3932Z" fill="#EA1C0D"/>
<path d="M19.6816 108.77C19.6816 102.279 19.6816 95.8746 19.6816 89.2991C26.1718 89.2991 32.5766 89.2991 39.1521 89.2991C39.1521 95.7038 39.1521 102.194 39.1521 108.77C32.7474 108.77 26.2572 108.77 19.6816 108.77Z" fill="#EA1C0D"/>
<path d="M68.6072 89.3843C68.6072 95.8744 68.6072 102.365 68.6072 108.855C62.1171 108.855 55.7123 108.855 49.1367 108.855C49.1367 102.45 49.1367 95.9598 49.1367 89.3843C55.6269 89.3843 62.0317 89.3843 68.6072 89.3843Z" fill="#EA1C0D"/>
<path d="M29.4169 15.6867C29.4169 18.9318 29.4169 22.0914 29.4169 25.3365C29.4169 28.24 27.282 30.375 24.4639 30.375C21.7312 30.375 19.6816 28.1546 19.6816 25.3365C19.6816 18.9318 19.6816 12.527 19.6816 6.20761C19.6816 3.21871 21.7312 0.998391 24.5493 0.998391C27.3674 0.912994 29.5023 3.21871 29.5023 6.20761C29.4169 9.36729 29.4169 12.527 29.4169 15.6867Z" fill="#EA1C0D"/>
<path d="M98.159 15.516C98.159 12.3563 98.159 9.19658 98.159 6.0369C98.159 3.2188 100.294 0.998476 103.027 0.998476C105.845 0.913079 107.98 3.1334 107.98 6.0369C107.98 12.4417 107.98 18.9318 107.98 25.3366C107.98 28.1547 105.845 30.375 103.112 30.375C100.294 30.375 98.159 28.2401 98.159 25.3366C98.0737 22.0915 98.159 18.8464 98.159 15.516Z" fill="#EA1C0D"/>
<path d="M114.301 126.532C117.887 122.945 121.303 119.53 124.719 116.114C127.025 113.808 129.331 111.502 131.636 109.197C133.686 107.232 136.418 107.232 138.383 109.026C140.176 110.648 140.432 113.296 138.98 115.516C138.639 116.028 138.126 116.541 137.699 117.053C131.295 123.458 124.89 129.863 118.485 136.267C115.582 139.171 112.934 139.171 110.031 136.353C105.761 132.083 101.577 127.813 97.2213 123.629C93.9762 120.469 95.6841 115.858 98.7584 115.089C100.893 114.491 102.687 115.004 104.224 116.541C107.554 119.786 110.885 123.116 114.301 126.532Z" fill="#EA1C0D"/>
</svg>
