<svg width="1081" height="246" viewBox="0 0 1081 246" fill="none" xmlns="http://www.w3.org/2000/svg">
<path d="M265.656 227.535L144.145 122.702L257.913 11.9128H169.758L69.6901 114.363V0L0 60.1597V185.84L69.6901 246V130.445L181.671 235.278H262.678C266.847 235.278 268.634 229.918 265.656 227.535Z" fill="#282828"/>
<path d="M543.225 235.278L386.571 12.5083H346.663L189.414 235.278H268.039L294.247 196.562H438.988L465.196 235.278H543.225ZM325.816 148.91L366.32 88.7505L406.823 148.91H325.816Z" fill="#282828"/>
<path d="M910.736 13.104C817.22 13.104 740.978 62.5423 740.978 123.893C740.978 185.244 817.22 234.683 910.736 234.683C1004.25 234.683 1080.49 185.244 1080.49 123.893C1080.49 63.1379 1004.85 13.104 910.736 13.104ZM816.029 123.298C820.199 45.8643 1007.23 45.8643 1011.4 123.298C1007.23 200.731 820.794 200.731 816.029 123.298Z" fill="#282828"/>
<path d="M620.659 11.9128H580.751L515.826 66.1161V234.683H585.516V182.862H620.659C727.279 181.671 772.547 142.358 771.356 98.8764C770.76 54.7989 721.918 13.1041 620.659 11.9128ZM634.358 131.041L584.92 131.637V66.1161H633.763C680.223 66.1161 705.835 80.4116 705.835 98.2809C706.431 116.15 680.818 131.041 634.358 131.041Z" fill="#282828"/>
</svg>
